<?xml version="1.0" encoding="UTF-8" standalone="no"?>
<svg
   viewBox="0 0 645.15504 12.034625"
   version="1.1"
   id="svg41"
   sodipodi:docname="Curser.svg"
   width="645.15503"
   height="12.034625"
   xmlns:inkscape="http://www.inkscape.org/namespaces/inkscape"
   xmlns:sodipodi="http://sodipodi.sourceforge.net/DTD/sodipodi-0.dtd"
   xmlns:xlink="http://www.w3.org/1999/xlink"
   xmlns="http://www.w3.org/2000/svg"
   xmlns:svg="http://www.w3.org/2000/svg">
  <sodipodi:namedview
     id="namedview41"
     pagecolor="#ffffff"
     bordercolor="#999999"
     borderopacity="1"
     inkscape:showpageshadow="false"
     inkscape:pageopacity="0"
     inkscape:pagecheckerboard="0"
     inkscape:deskcolor="#d1d1d1"
     inkscape:export-bgcolor="#ffffff00"
     showborder="false"
     borderlayer="false" />
  <defs
     id="defs11">
    <linearGradient
       id="b">
      <stop
         stop-color="#986d20"
         offset="0"
         id="stop1" />
      <stop
         stop-color="#c29f22"
         offset=".5"
         id="stop2" />
      <stop
         stop-color="#986b3d"
         offset="1"
         id="stop3" />
    </linearGradient>
    <linearGradient
       id="f"
       x1="681.16998"
       x2="686.62"
       y1="360.59"
       y2="362.26001"
       gradientUnits="userSpaceOnUse">
      <stop
         stop-color="#986d20"
         offset="0"
         id="stop4" />
      <stop
         stop-color="#c29f22"
         offset=".00303"
         id="stop5" />
      <stop
         stop-color="#986b3d"
         offset="1"
         id="stop6" />
    </linearGradient>
    <linearGradient
       id="a"
       x2="0"
       y1="368.16"
       y2="360.76001"
       gradientUnits="userSpaceOnUse">
      <stop
         offset="0"
         id="stop7" />
      <stop
         stop-color="#5f5f5f"
         offset=".71943"
         id="stop8" />
      <stop
         offset="1"
         id="stop9" />
    </linearGradient>
    <linearGradient
       id="e"
       x2="0"
       y1="372.31"
       y2="353"
       gradientUnits="userSpaceOnUse"
       xlink:href="#b" />
    <linearGradient
       id="d"
       x2="0"
       y1="372.34"
       y2="353.01999"
       gradientUnits="userSpaceOnUse"
       xlink:href="#b" />
    <radialGradient
       id="c"
       cx="49.445999"
       cy="363.13"
       r="13.528"
       gradientTransform="matrix(0.61743,0,0,0.34886,26.582,236.28)"
       gradientUnits="userSpaceOnUse">
      <stop
         stop-color="#fff"
         offset="0"
         id="stop10" />
      <stop
         stop-color="#c1c1c1"
         offset="1"
         id="stop11" />
    </radialGradient>
    <linearGradient
       inkscape:collect="always"
       xlink:href="#a"
       id="linearGradient41"
       gradientUnits="userSpaceOnUse"
       y1="368.16"
       x2="0"
       y2="360.76001" />
    <linearGradient
       inkscape:collect="always"
       xlink:href="#a"
       id="linearGradient42"
       gradientUnits="userSpaceOnUse"
       y1="368.16"
       x2="0"
       y2="360.76001" />
    <linearGradient
       inkscape:collect="always"
       xlink:href="#a"
       id="linearGradient43"
       gradientUnits="userSpaceOnUse"
       y1="368.16"
       x2="0"
       y2="360.76001" />
    <linearGradient
       inkscape:collect="always"
       xlink:href="#a"
       id="linearGradient44"
       gradientUnits="userSpaceOnUse"
       y1="368.16"
       x2="0"
       y2="360.76001" />
    <linearGradient
       inkscape:collect="always"
       xlink:href="#a"
       id="linearGradient45"
       gradientUnits="userSpaceOnUse"
       y1="368.16"
       x2="0"
       y2="360.76001" />
    <linearGradient
       inkscape:collect="always"
       xlink:href="#a"
       id="linearGradient46"
       gradientUnits="userSpaceOnUse"
       y1="368.16"
       x2="0"
       y2="360.76001" />
  </defs>
  <g
     transform="translate(-50.087272,-357.5313)"
     id="g41"
     inkscape:export-filename="g41.svg"
     inkscape:export-xdpi="7.9769831"
     inkscape:export-ydpi="7.9769831">
    <path
       transform="matrix(1.0839,0,0,0.73309,-48.984,99.185)"
       d="m 686.62,360.59 c 0,4.5144 -1.2199,8.1741 -2.7247,8.1741 -1.5048,0 -2.7247,-3.6597 -2.7247,-8.1741 0,-4.5144 1.2199,-8.1741 2.7247,-8.1741 1.5048,0 2.7247,3.6597 2.7247,8.1741 z"
       fill="url(#f)"
       id="path11"
       style="fill:url(#f)" />
    <path
       d="m 252.71,357.68 439.51,-0.14935 c 0,0 0.48148,4.2617 0.48026,6.2823 -8.7e-4,1.9825 -0.48026,5.7104 -0.48026,5.7104 H 252.4 l 0.30788,-11.843 z"
       fill="url(#d)"
       fill-rule="evenodd"
       id="path12"
       style="fill:url(#d)" />
    <path
       d="m 63.47,360.61 c 0,0 64.206,-1.9667 96.131,-2.4858 31.225,-0.50775 93.234,-0.45486 93.234,-0.45486 0,0 0.23839,4.0951 0.23793,6.1157 -3.4e-4,1.9825 -0.18351,5.7104 -0.18351,5.7104 0,0 -61.461,0.29476 -92.68,-0.3884 -31.949,-0.69915 -96.74,-3.8064 -96.74,-3.8064 v -4.6905 z"
       fill="url(#e)"
       fill-rule="evenodd"
       id="path13"
       style="fill:url(#e)" />
    <path
       d="m 64.473,362.96 c 0,1.2562 0.64632,2.3402 -0.81038,3.2168 -2.3543,1.4167 -3.7335,1.3324 -8.2137,1.3324 -2.2639,0 -2.6512,-0.50918 -4.1347,-1.3324 -1.4835,-0.82322 -1.2054,-1.9605 -1.2054,-3.2168 0,-1.2563 -0.27813,-2.3935 1.2054,-3.2167 1.48353,-0.8232 1.8709,-1.3324 4.1347,-1.3324 4.9551,0 6.2552,-0.0843 8.2137,1.3324 1.3847,1.0016 0.81038,1.9605 0.81038,3.2168 z"
       fill="url(#c)"
       id="path14"
       style="fill:url(#c)" />
    <path
       d="m 554.20461,364.36965 h -0.99974 l -0.13755,0.30283 h -0.89706 l 1.06755,-1.8345 h 0.95712 l 1.06755,1.8345 h -0.91837 l -0.1395,-0.30283 m -0.18406,-0.39669 -0.31387,-0.65946 -0.31194,0.65946 h 0.62581"
       fill="#c20000"
       id="path15" />
    <path
       d="m 555.53,362.84 h 1.1547 l 0.44562,1.1162 0.44368,-1.1162 h 1.1509 v 1.8345 h -0.71686 v -1.399 l -0.55607,1.399 h -0.64905 l -0.55413,-1.399 v 1.399 h -0.7188 V 362.84"
       fill="#c20000"
       id="path16" />
    <path
       d="m 559.28,362.84 h 2.3521 v 0.39167 h -1.4725 v 0.29157 h 1.3659 v 0.37416 h -1.3659 v 0.36165 h 1.5151 v 0.41545 H 559.28 V 362.84"
       fill="#c20000"
       id="path17" />
    <path
       d="m 562.16379,364.67248 v -1.8345 h 1.4628 c 0.27125,0 0.47855,0.015 0.62193,0.0451 0.14338,0.0301 0.25898,0.0859 0.34681,0.16769 0.0878,0.0818 0.13175,0.17977 0.13175,0.29657 0,0.10178 -0.0336,0.18979 -0.10079,0.26404 -0.0672,0.0743 -0.15952,0.13306 -0.27706,0.17895 -0.0749,0.0292 -0.17761,0.0534 -0.30806,0.0726 0.10465,0.0225 0.18083,0.045 0.22863,0.0676 0.0322,0.015 0.0788,0.0472 0.1395,0.0963 0.0607,0.0491 0.10327,0.0872 0.12393,0.11388 l 0.42431,0.53183 h -0.99199 l -0.46887,-0.56061 c -0.0595,-0.0726 -0.11237,-0.11972 -0.15888,-0.14141 -0.0633,-0.0284 -0.13498,-0.0425 -0.21505,-0.0425 h -0.0775 v 0.74456 h -0.88155 m 0.88155,-1.0912 h 0.37007 l 0.2325,-0.025 c 0.0581,-0.007 0.10526,-0.0267 0.14142,-0.0575 0.0362,-0.0308 0.0562,-0.0663 0.0562,-0.10638 0,-0.0592 -0.0291,-0.10469 -0.0872,-0.13639 -0.0581,-0.0317 -0.16727,-0.0476 -0.32744,-0.0476 h -0.38556 v 0.37291"
       fill="#c20000"
       id="path18" />
    <path
       d="m 565.27,362.84 h 0.87962 v 1.8345 H 565.27 V 362.84"
       fill="#c20000"
       id="path19" />
    <path
       d="m 568.66985,363.92291 0.76919,0.15017 c -0.0516,0.13931 -0.13305,0.25569 -0.24413,0.34912 -0.11108,0.0934 -0.24928,0.16394 -0.41461,0.21149 -0.16405,0.0476 -0.3733,0.0714 -0.62776,0.0714 -0.30869,0 -0.56121,-0.0288 -0.75755,-0.0863 -0.19634,-0.0575 -0.3636,-0.16059 -0.50569,-0.30658 -0.14209,-0.14599 -0.21311,-0.33286 -0.21311,-0.56061 0,-0.30367 0.12464,-0.53684 0.37393,-0.69952 0.24929,-0.16268 0.60449,-0.24527 1.06174,-0.24527 0.35778,0 0.63872,0.0467 0.8428,0.14015 0.20537,0.0934 0.35779,0.23693 0.45726,0.43047 l -0.77501,0.11138 c -0.0271,-0.0559 -0.0555,-0.0968 -0.0852,-0.12264 -0.049,-0.0434 -0.10913,-0.0768 -0.18019,-0.10011 -0.0711,-0.0233 -0.15047,-0.035 -0.23831,-0.035 -0.19891,0 -0.35133,0.0518 -0.45724,0.15517 -0.0801,0.0768 -0.12008,0.1973 -0.12008,0.36165 0,0.20355 0.0478,0.3433 0.14337,0.41921 0.0956,0.0759 0.22993,0.11262 0.40301,0.11262 0.17308,0 0.29449,-0.0304 0.37975,-0.0913 0.0853,-0.0609 0.14918,-0.14933 0.18792,-0.26529"
       fill="#c20000"
       id="path20" />
    <path
       d="m 571.61096,364.36965 h -0.99975 l -0.13756,0.30283 h -0.89705 l 1.06755,-1.8345 h 0.95712 l 1.06755,1.8345 h -0.91836 l -0.1395,-0.30283 m -0.18407,-0.39669 -0.31386,-0.65946 -0.31195,0.65946 h 0.62581"
       fill="#c20000"
       id="path21" />
    <path
       d="m 572.95,362.84 h 0.81956 l 1.0695,1.0148 V 362.84 h 0.82729 v 1.8345 h -0.82729 l -1.0637,-1.0074 v 1.0074 h -0.82538 V 362.84"
       fill="#c20000"
       id="path22" />
    <path
       d="m 579.47326,363.92291 0.76918,0.15017 c -0.0516,0.13931 -0.13304,0.25569 -0.24412,0.34912 -0.11108,0.0934 -0.2493,0.16394 -0.41463,0.21149 -0.16403,0.0476 -0.37329,0.0714 -0.62774,0.0714 -0.30871,0 -0.56123,-0.0288 -0.75755,-0.0863 -0.19632,-0.0575 -0.36361,-0.16059 -0.50569,-0.30658 -0.14208,-0.14599 -0.21312,-0.33286 -0.21312,-0.56061 0,-0.30367 0.12464,-0.53684 0.37394,-0.69952 0.2493,-0.16268 0.60448,-0.24527 1.06174,-0.24527 0.35778,0 0.63871,0.0467 0.8428,0.14015 0.20537,0.0934 0.35779,0.23693 0.45724,0.43047 l -0.77499,0.11138 c -0.0271,-0.0559 -0.0555,-0.0968 -0.0852,-0.12264 -0.049,-0.0434 -0.10913,-0.0768 -0.18018,-0.10011 -0.0711,-0.0233 -0.15048,-0.035 -0.23832,-0.035 -0.19891,0 -0.35133,0.0518 -0.45724,0.15517 -0.0801,0.0768 -0.12008,0.1973 -0.12008,0.36165 0,0.20355 0.0478,0.3433 0.14338,0.41921 0.0956,0.0759 0.22991,0.11262 0.403,0.11262 0.17309,0 0.2945,-0.0304 0.37975,-0.0913 0.0852,-0.0609 0.14918,-0.14933 0.18794,-0.26529"
       fill="#c20000"
       id="path23" />
    <path
       d="m 580.67,362.84 h 0.87768 v 1.3828 h 1.3698 v 0.45175 h -2.2475 v -1.8345"
       fill="#c20000"
       id="path24" />
    <path
       d="m 585.06483,364.36965 h -0.99974 l -0.13756,0.30283 h -0.89706 l 1.06755,-1.8345 h 0.95712 l 1.06755,1.8345 h -0.91836 l -0.1395,-0.30283 m -0.18407,-0.39669 -0.31386,-0.65946 -0.31193,0.65946 h 0.62579"
       fill="#c20000"
       id="path25" />
    <path
       d="m 586.24864,364.06556 0.83505,-0.0337 c 0.018,0.0876 0.0549,0.15433 0.11037,0.20022 0.0905,0.0743 0.21958,0.11138 0.3875,0.11138 0.12529,0 0.22151,-0.0188 0.28868,-0.0563 0.0672,-0.0375 0.10265,-0.0826 0.10265,-0.13265 0,-0.05 -0.0323,-0.0901 -0.0969,-0.12764 -0.0646,-0.0375 -0.2144,-0.073 -0.44949,-0.10637 -0.38491,-0.0559 -0.65939,-0.13013 -0.82343,-0.22274 -0.16533,-0.0926 -0.248,-0.21065 -0.248,-0.35413 0,-0.0943 0.0419,-0.18312 0.12595,-0.26655 0.0852,-0.0842 0.21246,-0.15016 0.38167,-0.19771 0.16921,-0.0476 0.40364,-0.0726 0.69944,-0.0726 0.36295,0 0.63936,0.0438 0.82924,0.13139 0.18988,0.0876 0.30483,0.22525 0.341,0.41545 l -0.82731,0.0313 c -0.022,-0.0826 -0.0684,-0.14265 -0.1395,-0.1802 -0.0711,-0.0375 -0.16662,-0.0563 -0.29062,-0.0563 -0.10203,0 -0.17889,0.0142 -0.23056,0.0425 -0.0517,0.0283 -0.0775,0.0613 -0.0775,0.10137 0,0.0292 0.0213,0.0554 0.064,0.0788 0.0427,0.0234 0.13949,0.0467 0.29449,0.0676 0.38362,0.0534 0.6581,0.10761 0.82343,0.16267 0.16662,0.0542 0.2874,0.1218 0.36232,0.20272 0.0761,0.0809 0.11435,0.17144 0.11435,0.27155 -2e-5,0.11763 -0.0504,0.22608 -0.15114,0.32535 -0.10074,0.0993 -0.24154,0.17478 -0.42236,0.2265 -0.18082,0.0517 -0.40882,0.0763 -0.68393,0.0763 -0.48308,0 -0.81762,-0.06 -1.00362,-0.1802 -0.186,-0.1202 -0.29127,-0.2728 -0.3158,-0.45801"
       fill="#c20000"
       id="path26" />
    <path
       d="m 589.11611,364.06556 0.83505,-0.0337 c 0.018,0.0876 0.0549,0.15433 0.11049,0.20022 0.0905,0.0743 0.21959,0.11138 0.38751,0.11138 0.12528,0 0.22151,-0.0188 0.28867,-0.0563 0.0672,-0.0375 0.10266,-0.0826 0.10266,-0.13265 0,-0.05 -0.0322,-0.0901 -0.0968,-0.12764 -0.0646,-0.0375 -0.21442,-0.073 -0.4495,-0.10637 -0.38492,-0.0559 -0.65938,-0.13013 -0.82343,-0.22274 -0.16533,-0.0926 -0.24799,-0.21065 -0.24799,-0.35413 0,-0.0943 0.0419,-0.18312 0.12593,-0.26655 0.0852,-0.0842 0.21248,-0.15016 0.38168,-0.19771 0.1692,-0.0476 0.40364,-0.0726 0.69944,-0.0726 0.36295,0 0.63936,0.0438 0.82924,0.13139 0.18988,0.0876 0.30483,0.22525 0.341,0.41545 l -0.82731,0.0313 c -0.022,-0.0826 -0.0684,-0.14265 -0.1395,-0.1802 -0.0711,-0.0375 -0.16663,-0.0563 -0.29062,-0.0563 -0.10203,0 -0.1789,0.0142 -0.23056,0.0425 -0.0517,0.0283 -0.0775,0.0613 -0.0775,0.10137 0,0.0292 0.0213,0.0554 0.064,0.0788 0.0427,0.0234 0.1395,0.0467 0.29449,0.0676 0.38362,0.0534 0.6581,0.10761 0.82343,0.16267 0.16662,0.0542 0.28739,0.1218 0.36231,0.20272 0.0762,0.0809 0.11435,0.17144 0.11435,0.27155 -10e-6,0.11763 -0.0504,0.22608 -0.15113,0.32535 -0.10073,0.0993 -0.24153,0.17478 -0.42236,0.2265 -0.18083,0.0517 -0.40882,0.0763 -0.68394,0.0763 -0.48307,0 -0.81761,-0.06 -1.00361,-0.1802 -0.186,-0.1202 -0.29127,-0.2728 -0.31581,-0.45801"
       fill="#c20000"
       id="path27" />
    <path
       d="m 592.17,362.84 h 0.87961 v 1.8345 H 592.17 V 362.84"
       fill="#c20000"
       id="path28" />
    <path
       d="m 595.56986,363.92291 0.76918,0.15017 c -0.0516,0.13931 -0.13304,0.25569 -0.24412,0.34912 -0.11108,0.0934 -0.2493,0.16394 -0.41463,0.21149 -0.16404,0.0476 -0.37329,0.0714 -0.62774,0.0714 -0.30871,0 -0.56123,-0.0288 -0.75755,-0.0863 -0.19632,-0.0575 -0.3636,-0.16059 -0.50569,-0.30658 -0.14209,-0.14599 -0.21312,-0.33286 -0.21312,-0.56061 0,-0.30367 0.12464,-0.53684 0.37394,-0.69952 0.2493,-0.16268 0.60449,-0.24527 1.06173,-0.24527 0.35779,0 0.63873,0.0467 0.84281,0.14015 0.20537,0.0934 0.35778,0.23693 0.45724,0.43047 l -0.77499,0.11138 c -0.0271,-0.0559 -0.0555,-0.0968 -0.0852,-0.12264 -0.049,-0.0434 -0.10913,-0.0768 -0.18019,-0.10011 -0.0711,-0.0233 -0.15049,-0.035 -0.23831,-0.035 -0.19891,0 -0.35133,0.0518 -0.45724,0.15517 -0.0801,0.0768 -0.12008,0.1973 -0.12008,0.36165 0,0.20355 0.0478,0.3433 0.14337,0.41921 0.0956,0.0759 0.22991,0.11262 0.40299,0.11262 0.17308,0 0.2945,-0.0304 0.37975,-0.0913 0.0852,-0.0609 0.14919,-0.14933 0.18794,-0.26529"
       fill="#c20000"
       id="path29" />
    <path
       d="m 566.44756,366.04148 h 0.9668 l 0.50376,0.56437 0.48824,-0.56437 h 0.95712 l -0.8835,0.88847 0.9668,0.94604 h -0.98617 l -0.55994,-0.58939 -0.56186,0.58939 h -0.98038 l 0.98038,-0.95605 -0.89125,-0.87846"
       id="path30" />
    <path
       d="m 570.62672,366.04148 v 0.50555 h 0.43398 v 0.37166 h -0.43398 v 0.47176 c 0,0.0567 0.009,0.0943 0.0251,0.11263 0.0259,0.0284 0.0711,0.0425 0.13563,0.0425 0.0645,0 0.13949,-0.0109 0.24412,-0.0326 l 0.0581,0.35164 c -0.19505,0.0276 -0.37716,0.0413 -0.54637,0.0413 -0.19633,0 -0.34099,-0.0162 -0.43399,-0.0488 -0.093,-0.0326 -0.16211,-0.0817 -0.20732,-0.14765 -0.0439,-0.0668 -0.0658,-0.17436 -0.0658,-0.32286 v -0.46801 h -0.29062 v -0.37165 h 0.29062 v -0.24402 l 0.79049,-0.26154"
       id="path31" />
    <path
       d="m 571.44239,366.54703 h 0.73819 v 0.21774 c 0.0711,-0.0943 0.14401,-0.15892 0.21893,-0.19396 0.0761,-0.0358 0.16985,-0.0538 0.28093,-0.0538 0.11622,0 0.24348,0.0234 0.38169,0.0701 l -0.24412,0.36289 c -0.0929,-0.025 -0.16663,-0.0375 -0.22088,-0.0375 -0.1034,0 -0.18341,0.0275 -0.24025,0.0826 -0.0814,0.0775 -0.12206,0.22275 -0.12206,0.43548 v 0.44548 h -0.79244 v -1.32895"
       id="path32" />
    <path
       d="m 575.54017,367.3379 h -1.58099 c 0.0142,0.0818 0.0484,0.14265 0.10266,0.1827 0.0761,0.0575 0.17567,0.0863 0.29838,0.0863 0.0775,0 0.15112,-0.0125 0.22087,-0.0375 0.0427,-0.0158 0.0885,-0.0438 0.13757,-0.0838 l 0.77693,0.0463 c -0.11884,0.13348 -0.26222,0.22942 -0.43013,0.28781 -0.16791,0.0584 -0.40881,0.0864 -0.72268,0.0864 -0.27254,0 -0.48696,-0.0246 -0.64325,-0.0739 -0.15629,-0.0493 -0.2861,-0.12889 -0.38943,-0.23651 -0.10333,-0.10762 -0.15306,-0.23567 -0.15306,-0.38167 0,-0.20772 0.10266,-0.37582 0.30806,-0.50429 0.2054,-0.12847 0.49147,-0.19271 0.85443,-0.19271 0.29449,0 0.52699,0.0288 0.6975,0.0863 0.17051,0.0575 0.3003,0.14099 0.38943,0.25027 0.0891,0.10928 0.13368,0.25153 0.13368,0.42672 v 0.0575 m -0.80211,-0.24402 c -0.0155,-0.0984 -0.0569,-0.16893 -0.12406,-0.21148 -0.0672,-0.0426 -0.15306,-0.0638 -0.26155,-0.0638 -0.1253,0 -0.22539,0.0322 -0.30031,0.0964 -0.0478,0.04 -0.0781,0.0997 -0.0911,0.17895 h 0.77693"
       id="path33" />
    <path
       d="m 575.91217,366.54703 h 0.73624 v 0.19397 c 0.10589,-0.0809 0.21247,-0.13849 0.31968,-0.17269 0.10721,-0.0342 0.23896,-0.0513 0.39137,-0.0513 0.16404,0 0.29386,0.0188 0.38943,0.0563 0.0956,0.0375 0.17373,0.0934 0.23444,0.16768 0.12394,-0.0868 0.23702,-0.14557 0.33906,-0.17644 0.10204,-0.0309 0.22797,-0.0476 0.37781,-0.0476 0.22088,0 0.39331,0.0425 0.51731,0.12764 0.12393,0.0843 0.18599,0.21649 0.18599,0.39669 v 0.83466 h -0.79049 v -0.75708 c 0,-0.06 -0.018,-0.1047 -0.0543,-0.13389 -0.053,-0.0459 -0.11883,-0.0688 -0.19762,-0.0688 -0.0929,0 -0.16792,0.0217 -0.22475,0.0651 -0.0568,0.0434 -0.0852,0.11303 -0.0852,0.20898 v 0.68574 h -0.79049 v -0.73204 c 0,-0.0584 -0.005,-0.098 -0.0156,-0.11889 -0.0168,-0.0334 -0.0459,-0.06 -0.0872,-0.08 -0.0413,-0.02 -0.0897,-0.0313 -0.14531,-0.0313 -0.0905,10e-6 -0.16469,0.0221 -0.22281,0.0663 -0.0581,0.0442 -0.0872,0.11679 -0.0872,0.21773 v 0.67824 h -0.7905 v -1.32895"
       id="path34" />
    <path
       d="m 582.1586,367.3379 h -1.58098 c 0.0142,0.0818 0.0484,0.14265 0.10265,0.1827 0.0762,0.0575 0.17566,0.0863 0.29837,0.0863 0.0775,0 0.15112,-0.0125 0.22088,-0.0375 0.0427,-0.0158 0.0885,-0.0438 0.13756,-0.0838 l 0.77693,0.0463 c -0.11883,0.13348 -0.26222,0.22942 -0.43012,0.28781 -0.1679,0.0584 -0.40882,0.0864 -0.72268,0.0864 -0.27254,0 -0.48696,-0.0246 -0.64325,-0.0739 -0.15629,-0.0493 -0.28609,-0.12889 -0.38943,-0.23651 -0.10334,-0.10762 -0.15307,-0.23567 -0.15307,-0.38167 0,-0.20772 0.10266,-0.37582 0.30807,-0.50429 0.20541,-0.12847 0.49147,-0.19271 0.85442,-0.19271 0.29451,0 0.527,0.0288 0.6975,0.0863 0.1705,0.0575 0.30031,0.14099 0.38943,0.25027 0.0891,0.10928 0.13369,0.25153 0.13369,0.42672 v 0.0575 m -0.80212,-0.24402 c -0.0155,-0.0984 -0.0569,-0.16893 -0.12393,-0.21148 -0.067,-0.0426 -0.15306,-0.0638 -0.26157,-0.0638 -0.12529,0 -0.22539,0.0322 -0.30031,0.0964 -0.0478,0.04 -0.0781,0.0997 -0.0911,0.17895 h 0.77693"
       id="path35" />
    <path
       d="m 501.36086,363.0558 h -1.75097 v -0.52651 c 0,-0.2457 -0.0224,-0.40219 -0.0672,-0.46948 -0.0448,-0.0673 -0.11942,-0.10091 -0.22392,-0.10092 -0.11344,1e-5 -0.20002,0.0453 -0.25972,0.13602 -0.0597,0.0907 -0.0851,0.22817 -0.0851,0.41244 0,0.23694 0.0328,0.41537 0.0985,0.5353 0.0626,0.11993 0.24032,0.26472 0.53291,0.43437 0.8389,0.4885 1.36733,0.88923 1.58527,1.20222 0.21794,0.31299 0.32691,0.81757 0.32692,1.51374 -1e-5,0.50604 -0.0612,0.87899 -0.18361,1.11884 -0.12241,0.23985 -0.35229,0.4417 -0.6986,0.6055 -0.34631,0.1638 -0.74935,0.24132 -1.20911,0.24132 -0.50455,0 -0.93594,-0.0936 -1.2942,-0.28081 -0.35826,-0.18721 -0.58814,-0.4256 -0.6986,-0.71518 -0.11046,-0.28958 -0.1657,-0.70056 -0.1657,-1.23293 v -0.46509 h 1.75098 v 0.86436 c 0,0.26619 0.0238,0.4373 0.0716,0.51336 0.0478,0.0761 0.13882,0.11408 0.26422,0.11408 0.1254,0 0.21793,-0.0483 0.27764,-0.14479 0.0597,-0.0965 0.0941,-0.23986 0.0941,-0.43 0,-0.41828 -0.0582,-0.69178 -0.17466,-0.82048 -0.11646,-0.1287 -0.41348,-0.3437 -0.8822,-0.64499 -0.46872,-0.30129 -0.7792,-0.52505 -0.93147,-0.66253 -0.15227,-0.13748 -0.27913,-0.32761 -0.38064,-0.5704 -0.10151,-0.24279 -0.14778,-0.55284 -0.14778,-0.93018 0,-0.54406 0.0701,-0.94188 0.21047,-1.19344 0.14037,-0.25156 0.37318,-0.44753 0.68965,-0.58794 0.31647,-0.14041 0.6986,-0.21499 1.14642,-0.215 0.48961,10e-6 0.90608,0.0775 1.24941,0.23255 0.34631,0.15503 0.5747,0.35102 0.68516,0.58794 0.11345,0.23401 0.17017,0.63329 0.17017,1.19783 v 0.2808"
       fill="url(#a)"
       id="path36"
       style="fill:url(#linearGradient41)" />
    <path
       d="m 505.57933,361.41043 v 0.91703 h 0.48812 v 0.9214 h -0.48812 v 3.11523 c -1e-5,0.3832 0.0194,0.59673 0.0582,0.64061 0.0388,0.0439 0.21048,0.0658 0.50604,0.0658 v 0.93895 h -0.72995 c -0.41199,0 -0.70606,-0.0161 -0.8822,-0.0483 -0.17615,-0.0351 -0.33139,-0.11262 -0.46573,-0.23254 -0.13434,-0.11992 -0.21795,-0.2618 -0.25078,-0.41684 -0.0328,-0.15504 -0.0493,-0.52651 -0.0493,-1.10568 v -2.95728 H 503.376 v -0.9214 h 0.38961 v -0.91703 h 1.81367"
       fill="url(#a)"
       id="path37"
       style="fill:url(#linearGradient42)" />
    <path
       d="m 509.94,360.91 v 0.92579 h -1.8629 V 360.91 h 1.8629 m 0,1.2812 v 5.8224 h -1.8629 v -5.8224 h 1.8629"
       fill="url(#a)"
       id="path38"
       style="fill:url(#linearGradient43)" />
    <path
       d="m 516.19713,364.38527 h -1.7062 v -0.67131 c 0,-0.23401 -0.0194,-0.39197 -0.0582,-0.47387 -0.0388,-0.0819 -0.11047,-0.12724 -0.21496,-0.12724 -0.10449,0 -0.17465,0.0365 -0.21047,0.10969 -0.0358,0.0732 -0.0537,0.23694 -0.0537,0.49142 v 2.74666 c 0,0.20769 0.0269,0.36418 0.0806,0.46948 0.0537,0.10238 0.13285,0.15357 0.23734,0.15357 0.1224,0 0.2045,-0.0541 0.2463,-0.16235 0.0418,-0.10825 0.0672,-0.31297 0.0672,-0.61426 v -0.69325 h 1.61215 c -0.003,0.46509 -0.0209,0.81464 -0.0538,1.04865 -0.0329,0.23401 -0.12987,0.46947 -0.30004,0.71518 -0.16719,0.24279 -0.38662,0.42706 -0.65829,0.55284 -0.27168,0.12286 -0.60754,0.18429 -1.0076,0.18429 -0.51051,0 -0.91503,-0.0848 -1.21359,-0.25449 -0.29856,-0.16969 -0.5105,-0.41243 -0.6359,-0.71957 -0.1224,-0.31006 -0.1836,-0.74882 -0.1836,-1.3163 v -1.65414 c 0,-0.49434 0.0507,-0.86728 0.15225,-1.11885 0.10155,-0.25157 0.31795,-0.47532 0.64934,-0.67131 0.33139,-0.19599 0.73442,-0.29836 1.20912,-0.29836 0.4747,0 0.87474,0.098 1.20911,0.29398 0.33437,0.19598 0.55678,0.44315 0.66725,0.7415 0.11047,0.29835 0.16569,0.72104 0.1657,1.26804"
       fill="url(#a)"
       id="path39"
       style="fill:url(#linearGradient44)" />
    <path
       d="m 522.24,362.19 -0.73442,2.3211 0.95385,3.5013 h -1.742 l -0.56425,-2.536 v 2.536 h -1.8092 v -7.1036 h 1.8092 v 2.9836 l 0.56425,-1.7024 h 1.5226"
       fill="url(#a)"
       id="path40"
       style="fill:url(#linearGradient45)" />
    <path
       d="m 527.94,360.91 -0.29555,5.3486 h -1.3972 l -0.29556,-5.3486 h 1.9883 m -0.14777,5.682 v 1.4216 h -1.6928 v -1.4216 h 1.6928"
       fill="url(#a)"
       id="path41"
       style="fill:url(#linearGradient46)" />
  </g>
</svg>
